<svg version="1" xmlns="http://www.w3.org/2000/svg" width="913.333" height="913.333" viewBox="0 0 685.000000 685.000000"><path d="M275.6 152.9L125.7 302.8l-.1 59.6c-.1 32.8.1 59.6.4 59.6.3 0 67.8-67.3 150-149.5L425.5 123V63 3L275.6 152.9zM405 172.5L255.5 322v50c0 27.5.2 50 .5 50s67.7-67.2 149.9-149.4l149.3-149.3V73.6c0-27.3-.1-49.9-.4-50.1-.2-.2-67.6 66.8-149.8 149zM405 432.5L255.5 582v50.5c0 27.8.1 50.5.1 50.5.1 0 67.6-67.4 149.9-149.7l149.7-149.7v-49.9c0-27.4-.2-50-.4-50.2-.2-.2-67.6 66.8-149.8 149zM275.1 436.4L125.7 585.8l.1 46.9c0 25.7.1 47.7.1 48.7.1 1.3 48.9-46.9 149.9-148.1l149.7-150.1v-48.1c0-26.5-.2-48.1-.5-48.1s-67.7 67.2-149.9 149.4z"/></svg>